PathFileType  4	(X/Y/Z) C:\Users\antoi\Documents\MyRepositories\mobilecap\ResultsAnalysis
DataRate	CameraRate	NumFrames	NumMarkers	Units	OrigDataRate	OrigDataStartFrame	OrigNumFrames
100.0	100.0	5	51	mm	100.0	164	261
Frame#	Time	r_knee			r_shank_antsup			r_ankle			r_calc			r_5meta			r_toe			L_knee			L_shank_antsup			L_ankle			L_calc			L_5meta			L_toe			r_sh2			r_sh3			r_sh4			L_sh2			L_sh3			r_thigh1			r_thigh2			r_thigh3			r_thigh4			r_thigh5			L_thigh1			L_thigh2			L_thigh3			L_thigh4			r.ASIS			r.PSIS			L.ASIS			L.PSIS			C7			R_Shoulder			L_Shoulder			R_Sternum			L_Sternum			R_humerus			R_elbow_med			R_elbow_lat			R_forearm			R_wrist_radius			R_wrist_ulna			L_humerus			L_elbow_med			L_elbow_lat			L_forearm			L_wrist_radius			L_wrist_ulna			R_HJC			L_HJC			R_HJC_reg			L_HJC_reg			
		X1	Y1	Z1	X2	Y2	Z2	X3	Y3	Z3	X4	Y4	Z4	X5	Y5	Z5	X6	Y6	Z6	X7	Y7	Z7	X8	Y8	Z8	X9	Y9	Z9	X10	Y10	Z10	X11	Y11	Z11	X12	Y12	Z12	X13	Y13	Z13	X14	Y14	Z14	X15	Y15	Z15	X16	Y16	Z16	X17	Y17	Z17	X18	Y18	Z18	X19	Y19	Z19	X20	Y20	Z20	X21	Y21	Z21	X22	Y22	Z22	X23	Y23	Z23	X24	Y24	Z24	X25	Y25	Z25	X26	Y26	Z26	X27	Y27	Z27	X28	Y28	Z28	X29	Y29	Z29	X30	Y30	Z30	X31	Y31	Z31	X32	Y32	Z32	X33	Y33	Z33	X34	Y34	Z34	X35	Y35	Z35	X36	Y36	Z36	X37	Y37	Z37	X38	Y38	Z38	X39	Y39	Z39	X40	Y40	Z40	X41	Y41	Z41	X42	Y42	Z42	X43	Y43	Z43	X44	Y44	Z44	X45	Y45	Z45	X46	Y46	Z46	X47	Y47	Z47	X48	Y48	Z48	X49	Y49	Z49	X50	Y50	Z50	X51	Y51	Z51	

164	1.63000000	-99.40955	427.05529	-421.61878	-117.71968	397.17185	-392.49145	-292.40302	97.42204	-418.80285	-365.44461	58.90806	-464.50705	-188.95144	40.69275	-369.33676	-142.45264	57.38228	-422.67314	-144.67349	428.70171	-794.09121	-132.38753	351.75664	-810.26116	-330.43508	102.93280	-780.06985	-402.77204	62.84677	-736.35863	-228.20339	39.83479	-818.65022	-177.37974	56.64925	-765.06830	-169.26942	293.35767	-382.45313	-56.21054	371.44509	-429.81596	-110.57192	269.29636	-440.41497	-204.98571	403.29406	-803.12187	-267.19239	294.54037	-800.81117	-339.21279	584.49157	-467.51163	-227.66324	564.89867	-466.41447	-209.76870	543.15482	-404.18756	-347.16248	541.52528	-368.74252	-239.17167	505.66369	-373.89789	-411.32447	557.76101	-733.27251	-284.52422	505.85552	-778.42263	-454.60753	454.19842	-739.71818	-325.79286	402.07755	-743.85158	-373.96891	615.43741	-442.65866	-557.86659	660.99958	-503.96327	-394.85058	574.44612	-659.33975	-563.58117	654.64567	-596.91092	-194.85385	1003.60936	-593.50110	-130.96786	948.30191	-449.74383	-141.08403	919.92855	-718.60451	-165.05931	857.75088	-563.17238	-166.17762	850.08259	-592.91283	-83.96040	797.09118	-287.79611	-117.80942	687.42118	-251.22892	-74.71555	730.28320	-214.93931	54.01630	659.72222	-221.92785	133.06077	598.32793	-248.09650	130.68946	594.98346	-202.64549	-36.79899	767.38811	-818.86105	-2.06997	639.57425	-808.40492	21.58870	678.92353	-854.83798	141.95142	722.69658	-771.76893	204.23636	747.18731	-687.97556	229.08703	718.59778	-710.97160	-458.22526	540.75661	-451.53650	-485.30626	520.56069	-639.19127	-452.76636	540.86700	-462.36221	-461.71662	530.91404	-607.94445	
165	1.64000000	-98.21112	426.71399	-421.30766	-116.68035	396.84401	-392.32027	-292.35128	97.48115	-418.81325	-365.44010	58.91822	-464.51231	-188.94297	40.74196	-369.34914	-142.43929	57.38360	-422.70375	-143.76599	428.52724	-793.88310	-131.82580	351.72573	-810.50999	-330.27079	103.13814	-779.68131	-402.62237	63.10467	-735.91027	-228.20047	39.88523	-818.61358	-177.31558	56.64723	-765.07468	-168.41131	292.89983	-382.84787	-55.05032	370.30460	-429.89607	-110.10068	268.73955	-440.44753	-204.18510	403.39626	-802.85142	-268.64836	293.13408	-797.90037	-337.03143	586.02470	-467.33278	-225.76236	565.53806	-466.02304	-207.91984	543.55206	-404.21362	-345.43983	542.72635	-368.38141	-237.58250	506.21780	-373.66353	-409.60709	559.69859	-733.34639	-283.33627	506.61024	-778.87622	-452.96832	456.08639	-739.25437	-324.98158	403.27896	-743.01574	-371.99543	617.40167	-441.94410	-555.47397	664.01712	-503.62605	-392.57856	576.31607	-659.20996	-560.91903	658.09590	-596.69278	-192.31119	1006.40793	-591.29325	-126.92227	951.12751	-449.22880	-137.64373	924.31323	-716.62216	-161.49855	860.28908	-561.20018	-162.51951	853.19227	-591.24453	-76.50765	803.67447	-285.31153	-109.04587	694.22316	-246.42684	-65.77767	738.78154	-211.16960	64.34279	671.05591	-220.49171	144.67432	611.12377	-247.32758	143.23760	608.29812	-202.46830	-35.13439	773.81887	-822.88519	-1.72287	644.46808	-817.11132	21.99460	686.02285	-863.34743	138.67426	731.85718	-776.51303	197.51859	757.85001	-691.29087	224.13362	730.61417	-713.52834	-456.71125	543.18611	-451.19786	-483.56579	523.26938	-638.91490	-451.21137	542.53695	-462.20550	-459.75377	533.24839	-608.22850	
166	1.65000000	-97.19772	426.52936	-420.73486	-115.73286	396.45345	-392.13525	-292.29610	97.54041	-418.81978	-365.45436	58.92299	-464.50557	-188.90604	40.79591	-369.32754	-142.43209	57.38303	-422.72706	-142.81154	428.29438	-793.23264	-131.26282	351.64381	-810.56858	-330.11184	103.29889	-779.20516	-402.47400	63.30033	-735.43426	-228.20501	39.93753	-818.59115	-177.26013	56.64077	-765.09333	-167.37649	292.27807	-383.50833	-54.28952	369.55664	-429.85697	-109.77776	268.48574	-440.22529	-203.40855	403.41577	-802.35380	-268.38042	293.33262	-797.46893	-334.78412	588.39124	-466.85882	-223.76454	566.60511	-465.96901	-205.97224	544.32398	-404.49018	-343.55710	544.73060	-368.23945	-235.99515	507.40118	-373.50908	-407.63079	562.24484	-733.32048	-282.00758	507.96004	-779.08151	-451.26594	458.71684	-738.77439	-324.09566	405.56096	-742.70232	-369.76141	620.07664	-441.51645	-553.00307	667.88881	-503.48720	-389.95058	579.21997	-659.73523	-558.25941	662.25279	-596.72429	-189.91088	1010.04735	-589.00354	-123.08167	954.83495	-448.25632	-134.39640	929.82055	-714.57515	-157.88229	863.90055	-559.58616	-158.93643	857.19874	-589.82826	-70.23283	810.88873	-282.56810	-101.57723	701.78330	-241.54096	-58.17846	747.77590	-207.31283	73.09332	682.88545	-219.04706	154.32331	624.66862	-246.99351	153.91650	621.95635	-202.65644	-34.50775	781.07489	-827.36007	-3.16209	650.29315	-826.15672	20.85256	693.91850	-872.49436	134.03463	740.84499	-782.01262	189.81588	767.34890	-695.46175	217.80592	741.70638	-716.94813	-454.89977	546.30914	-451.34550	-481.57022	526.93166	-639.14570	-449.40579	545.23345	-462.27445	-457.67244	536.37022	-608.90619	
167	1.66000000	-96.34970	426.39930	-420.19973	-114.93910	395.95352	-392.12715	-292.27240	97.57329	-418.81779	-365.46081	58.93733	-464.49637	-188.87041	40.80545	-369.31023	-142.42150	57.37475	-422.73986	-142.22182	428.32044	-793.18577	-130.74739	351.47653	-810.44014	-330.06116	103.41866	-778.77573	-402.36635	63.40846	-735.02124	-228.23502	39.98168	-818.56873	-177.24200	56.64166	-765.12061	-166.63195	291.94403	-383.75952	-53.67509	369.08943	-429.62609	-109.55346	268.55003	-439.92446	-202.66860	403.39864	-801.92598	-265.98984	295.49213	-800.15008	-332.39900	591.45063	-466.14490	-221.60003	567.91806	-465.94711	-203.90741	545.44360	-404.43442	-341.53462	547.56430	-368.33276	-234.41873	509.06375	-373.41241	-405.02371	566.01572	-734.18029	-280.51244	509.79052	-779.13540	-450.15800	462.97252	-738.97667	-323.15220	408.70500	-742.99496	-367.22996	623.33614	-441.41970	-550.32503	672.63656	-503.35499	-387.28335	583.26805	-660.00993	-555.59197	667.21879	-596.76665	-187.72946	1014.71558	-586.60643	-119.59503	959.49674	-446.82914	-131.42738	936.30576	-712.60754	-154.13925	868.72710	-558.32612	-155.27731	862.32519	-588.31845	-65.20572	818.75818	-279.42768	-95.18391	710.66961	-235.09057	-52.10943	757.25200	-203.05898	80.12040	694.87280	-217.57698	161.80480	638.69359	-247.28194	162.55027	636.04812	-202.82075	-35.06904	789.00716	-832.58488	-6.31032	656.99057	-835.45470	18.09457	702.26848	-881.70384	128.21184	749.55839	-788.24211	181.25279	775.96951	-700.28285	210.36350	751.73801	-721.26897	-452.88734	550.16342	-451.63931	-479.47844	531.56560	-639.52868	-447.32101	549.16945	-462.42473	-455.59767	540.65490	-609.21484	
168	1.67000000	-95.55883	426.24305	-419.83059	-114.36562	395.69175	-391.92372	-292.28688	97.56184	-418.79517	-365.43480	58.98269	-464.48024	-188.88271	40.75348	-369.32781	-142.41427	57.34765	-422.73112	-141.57789	428.38915	-792.94455	-130.27676	351.19661	-809.98469	-330.12764	103.52618	-778.49119	-402.28818	63.48514	-734.72025	-228.30684	39.99590	-818.51624	-177.26786	56.64706	-765.13702	-166.27510	291.99864	-383.42862	-52.95356	368.79517	-429.19668	-109.29677	268.60084	-439.73825	-201.90827	403.41134	-801.57854	-264.31968	297.04942	-801.94746	-329.56704	594.89252	-465.75764	-219.24571	569.51872	-465.75402	-201.66986	546.87280	-403.90609	-339.30462	551.00767	-368.44886	-232.72709	511.01816	-373.16996	-402.07432	570.79400	-735.62856	-278.89195	511.95850	-778.99681	-449.68362	468.63818	-739.62194	-322.45439	411.92035	-743.05462	-364.35617	627.16099	-441.32649	-547.35248	678.23334	-503.05693	-384.65751	588.13309	-659.78847	-552.73544	672.99434	-596.52571	-185.71924	1020.40470	-584.18806	-116.42776	965.12336	-445.19397	-128.76926	943.67689	-711.01969	-150.35748	874.77680	-556.99321	-151.49254	868.78540	-586.53307	-61.31240	827.08068	-276.04162	-90.02361	720.59056	-227.67183	-47.61434	766.99224	-198.58805	85.34688	706.93937	-216.13316	167.37303	652.75633	-247.87220	169.19840	650.21893	-203.01112	-36.89598	797.34620	-838.35918	-11.07721	664.42237	-845.04373	13.57298	710.87913	-890.64699	121.39508	757.88811	-794.98109	171.97998	783.81301	-705.59436	202.10570	760.72755	-726.54363	-450.69492	554.76037	-451.71653	-477.35825	536.98821	-639.67543	-445.03389	554.09810	-462.39359	-453.47700	545.88083	-609.00045	
